<svg xmlns="http://www.w3.org/2000/svg" width="155.297" height="59.072" viewBox="0 0 155.297 59.072"><g id="Groupe_316" data-name="Groupe 316" transform="translate(0.5 0.357)"><g id="Groupe_317" data-name="Groupe 317"><path id="Trac&#xE9;_28" data-name="Trac&#xE9; 28" d="M65.6,59.041c-.054,0-.11,0-.167-.006L36.86,56.9a2.379,2.379,0,0,1-1.869-1.273L22.534,29.8a2.378,2.378,0,0,1,.167-2.256L38.815,3.856a2.382,2.382,0,0,1,2.036-.983l28.57,2.136A2.377,2.377,0,0,1,71.29,6.282L83.747,32.108a2.377,2.377,0,0,1-.167,2.256L67.467,58.053a2.4,2.4,0,0,1-1.87.989M40.686,3.147a2.155,2.155,0,0,0-1.64.866L22.933,27.7a2.125,2.125,0,0,0-.147,1.977L35.243,55.5a2.134,2.134,0,0,0,1.639,1.116L65.45,58.756a2.115,2.115,0,0,0,1.785-.861L83.349,34.207a2.123,2.123,0,0,0,.146-1.976L71.038,6.4A2.133,2.133,0,0,0,69.4,5.288L40.83,3.153c-.049,0-.1-.005-.144-.005" transform="translate(-14.283 -1.835)" fill="#e85831" stroke="rgba(0,0,0,0)" stroke-width="1"></path><path id="Trac&#xE9;_29" data-name="Trac&#xE9; 29" d="M65.6,59.041c-.054,0-.11,0-.167-.006L36.86,56.9a2.379,2.379,0,0,1-1.869-1.273L22.534,29.8a2.378,2.378,0,0,1,.167-2.256L38.815,3.856a2.382,2.382,0,0,1,2.036-.983l28.57,2.136A2.377,2.377,0,0,1,71.29,6.282L83.747,32.108a2.377,2.377,0,0,1-.167,2.256L67.467,58.053A2.4,2.4,0,0,1,65.6,59.041ZM40.686,3.147a2.155,2.155,0,0,0-1.64.866L22.933,27.7a2.125,2.125,0,0,0-.147,1.977L35.243,55.5a2.134,2.134,0,0,0,1.639,1.116L65.45,58.756a2.115,2.115,0,0,0,1.785-.861L83.349,34.207a2.123,2.123,0,0,0,.146-1.976L71.038,6.4A2.133,2.133,0,0,0,69.4,5.288L40.83,3.153C40.781,3.149,40.733,3.147,40.686,3.147Z" transform="translate(-14.283 -1.835)" fill="none" stroke="#e85831" stroke-miterlimit="10" stroke-width="0.796"></path><path id="Trac&#xE9;_30" data-name="Trac&#xE9; 30" d="M52.145,56.3a2.226,2.226,0,0,1-.857-.171L26.615,45.892a2.327,2.327,0,0,1-1.355-1.8L22.333,18.407a2.33,2.33,0,0,1,.916-2.058L44.986.827A2.619,2.619,0,0,1,46.393.4a2.226,2.226,0,0,1,.857.171L71.922,10.8a2.327,2.327,0,0,1,1.356,1.8L76.2,38.289a2.33,2.33,0,0,1-.916,2.058L53.551,55.87a2.621,2.621,0,0,1-1.406.429M46.393.678a2.382,2.382,0,0,0-1.243.376L23.412,16.577a2.074,2.074,0,0,0-.8,1.8l2.927,25.686a2.083,2.083,0,0,0,1.185,1.573L51.395,55.869a1.944,1.944,0,0,0,.75.149,2.357,2.357,0,0,0,1.243-.376L75.125,40.119a2.074,2.074,0,0,0,.8-1.8L73,12.635a2.074,2.074,0,0,0-1.184-1.573L47.143.827a1.951,1.951,0,0,0-.75-.149" transform="translate(-14.285 -0.255)" fill="#ffa81c" stroke="rgba(0,0,0,0)" stroke-width="1"></path><path id="Trac&#xE9;_31" data-name="Trac&#xE9; 31" d="M52.145,56.3a2.226,2.226,0,0,1-.857-.171L26.615,45.892a2.327,2.327,0,0,1-1.355-1.8L22.333,18.407a2.33,2.33,0,0,1,.916-2.058L44.986.827A2.619,2.619,0,0,1,46.393.4a2.226,2.226,0,0,1,.857.171L71.922,10.8a2.327,2.327,0,0,1,1.356,1.8L76.2,38.289a2.33,2.33,0,0,1-.916,2.058L53.551,55.87A2.621,2.621,0,0,1,52.145,56.3ZM46.393.678a2.382,2.382,0,0,0-1.243.376L23.412,16.577a2.074,2.074,0,0,0-.8,1.8l2.927,25.686a2.083,2.083,0,0,0,1.185,1.573L51.395,55.869a1.944,1.944,0,0,0,.75.149,2.357,2.357,0,0,0,1.243-.376L75.125,40.119a2.074,2.074,0,0,0,.8-1.8L73,12.635a2.074,2.074,0,0,0-1.184-1.573L47.143.827A1.951,1.951,0,0,0,46.393.678Z" transform="translate(-14.285 -0.255)" fill="none" stroke="#ffa81c" stroke-miterlimit="10" stroke-width="0.796"></path><path id="Trac&#xE9;_32" data-name="Trac&#xE9; 32" d="M66.912,60.829a2.475,2.475,0,0,1-.619-.079L46.014,55.494a2.574,2.574,0,0,1-1.762-1.762l-5.07-19.607a2.573,2.573,0,0,1,.686-2.395L55.057,17.3a2.845,2.845,0,0,1,1.82-.71,2.462,2.462,0,0,1,.619.08l20.279,5.256a2.575,2.575,0,0,1,1.762,1.762L84.607,43.3a2.576,2.576,0,0,1-.686,2.4L68.733,60.119a2.848,2.848,0,0,1-1.821.711M56.877,16.871a2.608,2.608,0,0,0-1.627.633L40.061,31.933a2.332,2.332,0,0,0-.608,2.121l5.07,19.607a2.325,2.325,0,0,0,1.561,1.561l20.279,5.256a2.2,2.2,0,0,0,.548.07,2.6,2.6,0,0,0,1.628-.633L83.728,45.488a2.326,2.326,0,0,0,.608-2.123l-5.07-19.606A2.323,2.323,0,0,0,77.705,22.2L57.426,16.941a2.19,2.19,0,0,0-.549-.071" transform="translate(-25.032 -10.616)" fill="#ffde00" stroke="rgba(0,0,0,0)" stroke-width="1"></path><path id="Trac&#xE9;_33" data-name="Trac&#xE9; 33" d="M66.912,60.829a2.475,2.475,0,0,1-.619-.079L46.014,55.494a2.574,2.574,0,0,1-1.762-1.762l-5.07-19.607a2.573,2.573,0,0,1,.686-2.395L55.057,17.3a2.845,2.845,0,0,1,1.82-.71,2.462,2.462,0,0,1,.619.08l20.279,5.256a2.575,2.575,0,0,1,1.762,1.762L84.607,43.3a2.576,2.576,0,0,1-.686,2.4L68.733,60.119A2.848,2.848,0,0,1,66.912,60.829ZM56.877,16.871a2.608,2.608,0,0,0-1.627.633L40.061,31.933a2.332,2.332,0,0,0-.608,2.121l5.07,19.607a2.325,2.325,0,0,0,1.561,1.561l20.279,5.256a2.2,2.2,0,0,0,.548.07,2.6,2.6,0,0,0,1.628-.633L83.728,45.488a2.326,2.326,0,0,0,.608-2.123l-5.07-19.606A2.323,2.323,0,0,0,77.705,22.2L57.426,16.941A2.19,2.19,0,0,0,56.877,16.871Z" transform="translate(-25.032 -10.616)" fill="none" stroke="#ffde00" stroke-miterlimit="10" stroke-width="0.796"></path><rect id="Rectangle_12" data-name="Rectangle 12" width="4.359" height="18.837" transform="translate(34.844 10.724)" fill="#2f2e2d" stroke="rgba(0,0,0,0)" stroke-width="1"></rect><path id="Trac&#xE9;_34" data-name="Trac&#xE9; 34" d="M136.21,29.778h8.557a12.028,12.028,0,0,1,5.422,1.171,8.767,8.767,0,0,1,3.66,3.3,9.271,9.271,0,0,1,1.305,4.951,9.27,9.27,0,0,1-1.305,4.951,8.762,8.762,0,0,1-3.66,3.3,12.028,12.028,0,0,1-5.422,1.171H136.21Zm8.342,15.258a6.328,6.328,0,0,0,4.507-1.574,5.561,5.561,0,0,0,1.682-4.265,5.56,5.56,0,0,0-1.682-4.265,6.328,6.328,0,0,0-4.507-1.574h-3.983V45.036Z" transform="translate(-87.159 -19.054)" fill="#2f2e2d" stroke="rgba(0,0,0,0)" stroke-width="1"></path><path id="Trac&#xE9;_35" data-name="Trac&#xE9; 35" d="M220.134,44.578h-8.745l-1.668,4.037h-4.467l8.4-18.837h4.306l8.423,18.837H221.8Zm-1.373-3.309-2.987-7.212-2.987,7.212Z" transform="translate(-131.338 -19.054)" fill="#2f2e2d" stroke="rgba(0,0,0,0)" stroke-width="1"></path><path id="Trac&#xE9;_36" data-name="Trac&#xE9; 36" d="M298.9,45.116v3.5H284.311V29.778h14.235v3.5h-9.9v4.09h8.745v3.391h-8.745v4.359Z" transform="translate(-181.926 -19.054)" fill="#2f2e2d" stroke="rgba(0,0,0,0)" stroke-width="1"></path><path id="Trac&#xE9;_37" data-name="Trac&#xE9; 37" d="M95.813,105.513a5.73,5.73,0,0,1-2.22-2.145,6.279,6.279,0,0,1,0-6.15,5.718,5.718,0,0,1,2.229-2.144A6.516,6.516,0,0,1,99,94.294a6.657,6.657,0,0,1,2.514.461,5.154,5.154,0,0,1,1.944,1.366l-1.089,1.055a4.371,4.371,0,0,0-3.3-1.391,4.787,4.787,0,0,0-2.363.587,4.254,4.254,0,0,0-1.65,1.617,4.762,4.762,0,0,0,0,4.608,4.254,4.254,0,0,0,1.65,1.617,4.782,4.782,0,0,0,2.363.586,4.379,4.379,0,0,0,3.3-1.407l1.089,1.056a5.211,5.211,0,0,1-1.952,1.374,6.609,6.609,0,0,1-2.522.469,6.472,6.472,0,0,1-3.175-.779" transform="translate(-59.374 -60.337)" fill="#2f2e2d" stroke="rgba(0,0,0,0)" stroke-width="1"></path><path id="Trac&#xE9;_38" data-name="Trac&#xE9; 38" d="M136.679,110.823a4.248,4.248,0,0,1-1.65-1.617,4.89,4.89,0,0,1,0-4.675,4.193,4.193,0,0,1,1.65-1.609,5.167,5.167,0,0,1,4.751,0,4.212,4.212,0,0,1,1.642,1.609,4.89,4.89,0,0,1,0,4.675,4.268,4.268,0,0,1-1.642,1.617,5.1,5.1,0,0,1-4.751,0m3.913-1.215a2.776,2.776,0,0,0,1.064-1.106,3.656,3.656,0,0,0,0-3.267,2.729,2.729,0,0,0-1.064-1.1,3.243,3.243,0,0,0-3.066,0,2.784,2.784,0,0,0-1.072,1.1,3.587,3.587,0,0,0,0,3.267,2.832,2.832,0,0,0,1.072,1.106,3.178,3.178,0,0,0,3.066,0" transform="translate(-86.022 -65.488)" fill="#2f2e2d" stroke="rgba(0,0,0,0)" stroke-width="1"></path><path id="Trac&#xE9;_39" data-name="Trac&#xE9; 39" d="M183,103.325a3.856,3.856,0,0,1,1,2.874v5.111h-1.608v-4.926a2.73,2.73,0,0,0-.62-1.944,2.333,2.333,0,0,0-1.776-.653,2.767,2.767,0,0,0-2.061.763,2.979,2.979,0,0,0-.754,2.186v4.575h-1.609v-8.881h1.542v1.341a3.131,3.131,0,0,1,1.316-1.056,4.6,4.6,0,0,1,1.885-.369,3.67,3.67,0,0,1,2.69.981" transform="translate(-112.343 -65.488)" fill="#2f2e2d" stroke="rgba(0,0,0,0)" stroke-width="1"></path><path id="Trac&#xE9;_40" data-name="Trac&#xE9; 40" d="M215.02,111.116a4.593,4.593,0,0,1-1.575-.745l.67-1.274a4.819,4.819,0,0,0,1.424.671,5.878,5.878,0,0,0,1.693.251q2.112,0,2.111-1.206a.781.781,0,0,0-.285-.637,1.8,1.8,0,0,0-.712-.344q-.427-.109-1.215-.243a11.864,11.864,0,0,1-1.751-.385,2.7,2.7,0,0,1-1.165-.737,2.052,2.052,0,0,1-.486-1.458,2.277,2.277,0,0,1,1.005-1.936,4.5,4.5,0,0,1,2.7-.729,7.422,7.422,0,0,1,1.776.218,4.789,4.789,0,0,1,1.458.586l-.687,1.274a4.62,4.62,0,0,0-2.564-.7,2.968,2.968,0,0,0-1.559.335,1.012,1.012,0,0,0-.536.888.846.846,0,0,0,.3.687,1.9,1.9,0,0,0,.746.369q.444.118,1.248.268a13.66,13.66,0,0,1,1.734.394,2.591,2.591,0,0,1,1.131.712,1.986,1.986,0,0,1,.469,1.408,2.22,2.22,0,0,1-1.03,1.918,4.867,4.867,0,0,1-2.807.712,7.451,7.451,0,0,1-2.094-.293" transform="translate(-136.58 -65.488)" fill="#2f2e2d" stroke="rgba(0,0,0,0)" stroke-width="1"></path><path id="Trac&#xE9;_41" data-name="Trac&#xE9; 41" d="M257.31,102.577v8.881h-1.525v-1.34a3.241,3.241,0,0,1-1.282,1.064,4,4,0,0,1-1.734.377,3.876,3.876,0,0,1-2.8-.98,3.824,3.824,0,0,1-1.022-2.891v-5.111h1.609V107.5a2.758,2.758,0,0,0,.62,1.952,2.315,2.315,0,0,0,1.776.662,2.651,2.651,0,0,0,2.011-.771,3.025,3.025,0,0,0,.737-2.178v-4.591Z" transform="translate(-159.298 -65.637)" fill="#2f2e2d" stroke="rgba(0,0,0,0)" stroke-width="1"></path><rect id="Rectangle_13" data-name="Rectangle 13" width="1.609" height="12.433" transform="translate(104.429 33.387)" fill="#2f2e2d" stroke="rgba(0,0,0,0)" stroke-width="1"></rect><path id="Trac&#xE9;_42" data-name="Trac&#xE9; 42" d="M315.612,107.485a2.4,2.4,0,0,1-.871.461,3.65,3.65,0,0,1-1.073.159,2.85,2.85,0,0,1-2.078-.72,2.752,2.752,0,0,1-.737-2.061v-4.876h-1.508V99.124h1.508V97.18h1.609v1.944h2.547v1.324h-2.547v4.809a1.558,1.558,0,0,0,.361,1.106,1.34,1.34,0,0,0,1.03.385,1.936,1.936,0,0,0,1.257-.419Z" transform="translate(-197.945 -62.184)" fill="#2f2e2d" stroke="rgba(0,0,0,0)" stroke-width="1"></path><path id="Trac&#xE9;_43" data-name="Trac&#xE9; 43" d="M340.971,93.807a.988.988,0,0,1-.31-.737,1.015,1.015,0,0,1,.31-.745,1.055,1.055,0,0,1,.779-.31,1.091,1.091,0,0,1,.779.294.963.963,0,0,1,.31.729,1.039,1.039,0,0,1-.31.763,1.057,1.057,0,0,1-.779.31,1.073,1.073,0,0,1-.779-.3m-.025,2.011h1.609V104.7h-1.609Z" transform="translate(-217.984 -58.878)" fill="#2f2e2d" stroke="rgba(0,0,0,0)" stroke-width="1"></path><path id="Trac&#xE9;_44" data-name="Trac&#xE9; 44" d="M371.172,103.325a3.855,3.855,0,0,1,1,2.874v5.111H370.56v-4.926a2.728,2.728,0,0,0-.62-1.944,2.333,2.333,0,0,0-1.776-.653,2.768,2.768,0,0,0-2.061.763,2.978,2.978,0,0,0-.754,2.186v4.575H363.74v-8.881h1.542v1.341a3.131,3.131,0,0,1,1.316-1.056,4.6,4.6,0,0,1,1.885-.369,3.669,3.669,0,0,1,2.69.981" transform="translate(-232.752 -65.488)" fill="#2f2e2d" stroke="rgba(0,0,0,0)" stroke-width="1"></path><path id="Trac&#xE9;_45" data-name="Trac&#xE9; 45" d="M411.911,102.428V110.1a4.589,4.589,0,0,1-1.156,3.443,4.8,4.8,0,0,1-3.452,1.115,8.268,8.268,0,0,1-2.4-.344,4.742,4.742,0,0,1-1.843-.981l.771-1.24a4.542,4.542,0,0,0,1.533.846,5.831,5.831,0,0,0,1.885.31,3.164,3.164,0,0,0,2.3-.737,3.033,3.033,0,0,0,.746-2.245v-.7a3.558,3.558,0,0,1-1.4,1.03,4.665,4.665,0,0,1-1.8.344,4.845,4.845,0,0,1-2.3-.545,4.041,4.041,0,0,1-1.617-1.525,4.558,4.558,0,0,1,0-4.474,3.991,3.991,0,0,1,1.617-1.516,4.913,4.913,0,0,1,2.3-.537,4.714,4.714,0,0,1,1.868.369,3.474,3.474,0,0,1,1.416,1.089v-1.374Zm-3.058,6.736a2.729,2.729,0,0,0,1.089-1.03,2.881,2.881,0,0,0,.394-1.5,2.718,2.718,0,0,0-.854-2.086,3.447,3.447,0,0,0-4.407,0,2.718,2.718,0,0,0-.855,2.086,2.881,2.881,0,0,0,.394,1.5,2.734,2.734,0,0,0,1.089,1.03,3.327,3.327,0,0,0,1.584.368,3.293,3.293,0,0,0,1.567-.368" transform="translate(-257.614 -65.488)" fill="#2f2e2d" stroke="rgba(0,0,0,0)" stroke-width="1"></path><path id="Trac&#xE9;_46" data-name="Trac&#xE9; 46" d="M184.92,11.481a2.01,2.01,0,1,0-1.912-2.007,1.961,1.961,0,0,0,1.912,2.007" transform="translate(-117.104 -4.777)" fill="#e85831" stroke="rgba(0,0,0,0)" stroke-width="1"></path><path id="Trac&#xE9;_47" data-name="Trac&#xE9; 47" d="M101.035,154.906a1.9,1.9,0,1,0-1.912-1.9,1.906,1.906,0,0,0,1.912,1.9" transform="translate(-63.427 -96.69)" fill="#ffa81c" stroke="rgba(0,0,0,0)" stroke-width="1"></path><path id="Trac&#xE9;_48" data-name="Trac&#xE9; 48" d="M1.912,84.685A1.912,1.912,0,1,0,0,82.773a1.912,1.912,0,0,0,1.912,1.912" transform="translate(0 -51.742)" fill="#ffde00" stroke="rgba(0,0,0,0)" stroke-width="1"></path></g></g></svg>